<?xml version="1.0" encoding="UTF-8" standalone="no"?>
<!-- Created with Inkscape (http://www.inkscape.org/) -->

<svg
   xmlns:dc="http://purl.org/dc/elements/1.1/"
   xmlns:cc="http://creativecommons.org/ns#"
   xmlns:rdf="http://www.w3.org/1999/02/22-rdf-syntax-ns#"
   xmlns:svg="http://www.w3.org/2000/svg"
   xmlns="http://www.w3.org/2000/svg"
   xmlns:xlink="http://www.w3.org/1999/xlink"
   xmlns:sodipodi="http://sodipodi.sourceforge.net/DTD/sodipodi-0.dtd"
   xmlns:inkscape="http://www.inkscape.org/namespaces/inkscape"
   width="72"
   height="72"
   id="svg4713"
   version="1.1"
   inkscape:version="0.47 r22583"
   sodipodi:docname="positionsmenu.svg"
   inkscape:export-filename="/Users/fede/devel/workspace/geotagger/res/drawable-mdpi/posmenu.png"
   inkscape:export-xdpi="60"
   inkscape:export-ydpi="60">
  <defs
     id="defs4715">
    <linearGradient
       id="linearGradient5636">
      <stop
         style="stop-color:#a3a3a3;stop-opacity:1;"
         offset="0"
         id="stop5638" />
      <stop
         style="stop-color:#a3a3a3;stop-opacity:0;"
         offset="1"
         id="stop5640" />
    </linearGradient>
    <linearGradient
       id="linearGradient5615">
      <stop
         style="stop-color:#a3a3a3;stop-opacity:0.39215687;"
         offset="0"
         id="stop5617" />
      <stop
         style="stop-color:#a3a3a3;stop-opacity:0;"
         offset="1"
         id="stop5619" />
    </linearGradient>
    <linearGradient
       id="linearGradient5607">
      <stop
         style="stop-color:#787878;stop-opacity:0.39215687;"
         offset="0"
         id="stop5609" />
      <stop
         style="stop-color:#000000;stop-opacity:0;"
         offset="1"
         id="stop5611" />
    </linearGradient>
    <linearGradient
       id="linearGradient5597">
      <stop
         id="stop5605"
         offset="0"
         style="stop-color:#000000;stop-opacity:0.49803922;" />
      <stop
         style="stop-color:#000000;stop-opacity:0;"
         offset="1"
         id="stop5601" />
    </linearGradient>
    <inkscape:perspective
       sodipodi:type="inkscape:persp3d"
       inkscape:vp_x="0 : 526.18109 : 1"
       inkscape:vp_y="0 : 1000 : 0"
       inkscape:vp_z="744.09448 : 526.18109 : 1"
       inkscape:persp3d-origin="372.04724 : 350.78739 : 1"
       id="perspective4721" />
    <radialGradient
       gradientUnits="userSpaceOnUse"
       gradientTransform="matrix(1.9733097,2.8880072e-6,-2.4997036e-6,1.7079907,4.535038,-729.32146)"
       r="7.0451807"
       fy="1030.1285"
       fx="-4.6567531"
       cy="1030.1285"
       cx="-4.6567531"
       id="radialGradient3793"
       xlink:href="#linearGradient3787"
       inkscape:collect="always" />
    <linearGradient
       y2="1026.9083"
       x2="-40.219354"
       y1="1026.9083"
       x1="-75.344354"
       gradientTransform="matrix(1.1272267,0,0,1.1272689,61.683236,-128.68236)"
       gradientUnits="userSpaceOnUse"
       id="linearGradient3784"
       xlink:href="#linearGradient4418"
       inkscape:collect="always" />
    <linearGradient
       y2="1018.8217"
       x2="-60.69957"
       y1="1018.8217"
       x1="-17.271"
       gradientTransform="matrix(1.1272267,0,0,1.1272689,36.368443,-120.4568)"
       gradientUnits="userSpaceOnUse"
       id="linearGradient3781"
       xlink:href="#linearGradient4553"
       inkscape:collect="always" />
    <radialGradient
       r="7.0451809"
       fy="1032.9857"
       fx="-9.513896"
       cy="1032.9857"
       cx="-9.513896"
       gradientTransform="matrix(1.8110914,-9.7492623e-6,5.046428e-6,0.9374599,7.7114265,64.602938)"
       gradientUnits="userSpaceOnUse"
       id="radialGradient3773"
       xlink:href="#linearGradient3732"
       inkscape:collect="always" />
    <linearGradient
       y2="1018.8217"
       x2="-60.69957"
       y1="1018.8217"
       x1="-17.271"
       gradientTransform="matrix(1.1272267,0,0,1.1272689,31.5113,-117.59966)"
       gradientUnits="userSpaceOnUse"
       id="linearGradient3771"
       xlink:href="#linearGradient4553"
       inkscape:collect="always" />
    <linearGradient
       y2="1026.9083"
       x2="-40.219354"
       y1="1026.9083"
       x1="-75.344354"
       gradientTransform="matrix(1.1272267,0,0,1.1272689,56.826093,-125.82522)"
       gradientUnits="userSpaceOnUse"
       id="linearGradient3769"
       xlink:href="#linearGradient4418"
       inkscape:collect="always" />
    <radialGradient
       r="7.0451809"
       fy="1032.9857"
       fx="-9.513896"
       cy="1032.9857"
       cx="-9.513896"
       gradientTransform="matrix(1.8110914,-9.7492623e-6,5.046428e-6,0.9374599,7.7114265,64.602938)"
       gradientUnits="userSpaceOnUse"
       id="radialGradient3760"
       xlink:href="#linearGradient3732"
       inkscape:collect="always" />
    <linearGradient
       y2="1018.8217"
       x2="-60.69957"
       y1="1018.8217"
       x1="-17.271"
       gradientTransform="matrix(1.1272267,0,0,1.1272689,31.5113,-117.59966)"
       gradientUnits="userSpaceOnUse"
       id="linearGradient3758"
       xlink:href="#linearGradient4553"
       inkscape:collect="always" />
    <linearGradient
       y2="1026.9083"
       x2="-40.219354"
       y1="1026.9083"
       x1="-75.344354"
       gradientTransform="matrix(1.1272267,0,0,1.1272689,56.826093,-125.82522)"
       gradientUnits="userSpaceOnUse"
       id="linearGradient3756"
       xlink:href="#linearGradient4418"
       inkscape:collect="always" />
    <radialGradient
       gradientUnits="userSpaceOnUse"
       gradientTransform="matrix(1.8110914,-9.7492623e-6,5.046428e-6,0.9374599,7.7114265,64.602938)"
       r="7.0451809"
       fy="1032.9857"
       fx="-9.513896"
       cy="1032.9857"
       cx="-9.513896"
       id="radialGradient3738"
       xlink:href="#linearGradient3732"
       inkscape:collect="always" />
    <linearGradient
       gradientUnits="userSpaceOnUse"
       y2="1004.795"
       x2="59.305294"
       y1="1004.795"
       x1="29.52868"
       id="linearGradient3730"
       xlink:href="#linearGradient3724"
       inkscape:collect="always" />
    <linearGradient
       gradientUnits="userSpaceOnUse"
       y2="1021.0969"
       x2="50.280731"
       y1="1021.0968"
       x1="29.482919"
       id="linearGradient3722"
       xlink:href="#linearGradient3716"
       inkscape:collect="always" />
    <linearGradient
       gradientUnits="userSpaceOnUse"
       y2="1020.3821"
       x2="61.650129"
       y1="1020.3821"
       x1="47.262238"
       id="linearGradient3714"
       xlink:href="#linearGradient3708"
       inkscape:collect="always" />
    <linearGradient
       gradientUnits="userSpaceOnUse"
       y2="1011.1116"
       x2="73.10321"
       y1="1012.5796"
       x1="29.528681"
       id="linearGradient3706"
       xlink:href="#linearGradient3700"
       inkscape:collect="always" />
    <linearGradient
       gradientUnits="userSpaceOnUse"
       y2="1007.5054"
       x2="68.193714"
       y1="1007.5054"
       x1="47.07241"
       id="linearGradient3698"
       xlink:href="#linearGradient3692"
       inkscape:collect="always" />
    <linearGradient
       y2="46.612244"
       x2="-10.135507"
       y1="25.956314"
       x1="-49.081635"
       gradientTransform="matrix(1.3902326,0,0,1.4841672,112.78066,-20.67993)"
       gradientUnits="userSpaceOnUse"
       id="linearGradient2867"
       xlink:href="#linearGradient4288"
       inkscape:collect="always" />
    <linearGradient
       y2="1026.9083"
       x2="-40.219354"
       y1="1026.9083"
       x1="-75.344354"
       gradientTransform="matrix(1.1272267,0,0,1.1272689,56.826093,-125.82522)"
       gradientUnits="userSpaceOnUse"
       id="linearGradient3008"
       xlink:href="#linearGradient4418"
       inkscape:collect="always" />
    <linearGradient
       y2="1018.8217"
       x2="-60.69957"
       y1="1018.8217"
       x1="-17.271"
       gradientTransform="matrix(1.1272267,0,0,1.1272689,31.5113,-117.59966)"
       gradientUnits="userSpaceOnUse"
       id="linearGradient3005"
       xlink:href="#linearGradient4553"
       inkscape:collect="always" />
    <radialGradient
       r="6.2578697"
       fy="19.977142"
       fx="-51.618797"
       cy="19.977142"
       cx="-51.618797"
       gradientTransform="matrix(-2.2693138,1.233188,-1.0000001,-1.8402011,-95.635283,1112.3851)"
       gradientUnits="userSpaceOnUse"
       id="radialGradient2997"
       xlink:href="#linearGradient4394"
       inkscape:collect="always" />
    <linearGradient
       y2="1018.8217"
       x2="-60.69957"
       y1="1018.8217"
       x1="-17.271"
       gradientTransform="translate(36.142856,-10.571429)"
       gradientUnits="userSpaceOnUse"
       id="linearGradient2995"
       xlink:href="#linearGradient4553"
       inkscape:collect="always" />
    <linearGradient
       y2="1026.9083"
       x2="-40.219354"
       y1="1026.9083"
       x1="-75.344354"
       gradientTransform="translate(58.600444,-17.868317)"
       gradientUnits="userSpaceOnUse"
       id="linearGradient2993"
       xlink:href="#linearGradient4418"
       inkscape:collect="always" />
    <radialGradient
       r="6.2578697"
       fy="19.977142"
       fx="-51.618797"
       cy="19.977142"
       cx="-51.618797"
       gradientTransform="matrix(-2.2693138,1.233188,-1.0000001,-1.8402011,-95.635283,1112.3851)"
       gradientUnits="userSpaceOnUse"
       id="radialGradient2984"
       xlink:href="#linearGradient4394"
       inkscape:collect="always" />
    <linearGradient
       y2="1018.8217"
       x2="-60.69957"
       y1="1018.8217"
       x1="-17.271"
       gradientTransform="translate(36.142856,-10.571429)"
       gradientUnits="userSpaceOnUse"
       id="linearGradient2982"
       xlink:href="#linearGradient4553"
       inkscape:collect="always" />
    <linearGradient
       y2="1026.9083"
       x2="-40.219354"
       y1="1026.9083"
       x1="-75.344354"
       gradientTransform="translate(58.600444,-17.868317)"
       gradientUnits="userSpaceOnUse"
       id="linearGradient2980"
       xlink:href="#linearGradient4418"
       inkscape:collect="always" />
    <radialGradient
       r="6.2578697"
       fy="19.977142"
       fx="-51.618797"
       cy="19.977142"
       cx="-51.618797"
       gradientTransform="matrix(-2.2693138,1.233188,-1.0000001,-1.8402011,-95.635283,1112.3851)"
       gradientUnits="userSpaceOnUse"
       id="radialGradient4597"
       xlink:href="#linearGradient4394"
       inkscape:collect="always" />
    <linearGradient
       y2="1018.8217"
       x2="-60.69957"
       y1="1018.8217"
       x1="-17.271"
       gradientTransform="translate(36.142856,-10.571429)"
       gradientUnits="userSpaceOnUse"
       id="linearGradient4595"
       xlink:href="#linearGradient4553"
       inkscape:collect="always" />
    <linearGradient
       y2="1026.9083"
       x2="-40.219354"
       y1="1026.9083"
       x1="-75.344354"
       gradientTransform="translate(58.600444,-17.868317)"
       gradientUnits="userSpaceOnUse"
       id="linearGradient4593"
       xlink:href="#linearGradient4418"
       inkscape:collect="always" />
    <inkscape:perspective
       id="perspective3756"
       inkscape:persp3d-origin="374.8937 : 195.57982 : 1"
       inkscape:vp_z="706.72169 : 350.08341 : 1"
       inkscape:vp_y="0 : 880.8959 : 0"
       inkscape:vp_x="43.065706 : 350.08341 : 1"
       sodipodi:type="inkscape:persp3d" />
    <linearGradient
       id="linearGradient4288"
       inkscape:collect="always">
      <stop
         id="stop4290"
         offset="0"
         style="stop-color:#c58d6b;stop-opacity:1;" />
      <stop
         id="stop4292"
         offset="1"
         style="stop-color:#c58d6b;stop-opacity:0;" />
    </linearGradient>
    <linearGradient
       id="linearGradient4394"
       inkscape:collect="always">
      <stop
         id="stop4396"
         offset="0"
         style="stop-color:#000000;stop-opacity:1;" />
      <stop
         id="stop4398"
         offset="1"
         style="stop-color:#000000;stop-opacity:0;" />
    </linearGradient>
    <linearGradient
       id="linearGradient4418"
       inkscape:collect="always">
      <stop
         id="stop4420"
         offset="0"
         style="stop-color:#fd7d2a;stop-opacity:1;" />
      <stop
         id="stop4422"
         offset="1"
         style="stop-color:#fd7d2a;stop-opacity:0;" />
    </linearGradient>
    <linearGradient
       id="linearGradient4553"
       inkscape:collect="always">
      <stop
         id="stop4555"
         offset="0"
         style="stop-color:#ff6600;stop-opacity:1;" />
      <stop
         id="stop4557"
         offset="1"
         style="stop-color:#ff6600;stop-opacity:0;" />
    </linearGradient>
    <linearGradient
       id="linearGradient3692"
       inkscape:collect="always">
      <stop
         id="stop3694"
         offset="0"
         style="stop-color:#ff6600;stop-opacity:1;" />
      <stop
         id="stop3696"
         offset="1"
         style="stop-color:#ff6600;stop-opacity:0;" />
    </linearGradient>
    <linearGradient
       id="linearGradient3700"
       inkscape:collect="always">
      <stop
         id="stop3702"
         offset="0"
         style="stop-color:#008080;stop-opacity:1;" />
      <stop
         id="stop3704"
         offset="1"
         style="stop-color:#008080;stop-opacity:0;" />
    </linearGradient>
    <linearGradient
       id="linearGradient3708"
       inkscape:collect="always">
      <stop
         id="stop3710"
         offset="0"
         style="stop-color:#ff6600;stop-opacity:1;" />
      <stop
         id="stop3712"
         offset="1"
         style="stop-color:#ff6600;stop-opacity:0;" />
    </linearGradient>
    <linearGradient
       id="linearGradient3716"
       inkscape:collect="always">
      <stop
         id="stop3718"
         offset="0"
         style="stop-color:#ff6600;stop-opacity:1;" />
      <stop
         id="stop3720"
         offset="1"
         style="stop-color:#ff6600;stop-opacity:0;" />
    </linearGradient>
    <linearGradient
       id="linearGradient3724"
       inkscape:collect="always">
      <stop
         id="stop3726"
         offset="0"
         style="stop-color:#ff6600;stop-opacity:1;" />
      <stop
         id="stop3728"
         offset="1"
         style="stop-color:#ff6600;stop-opacity:0;" />
    </linearGradient>
    <linearGradient
       id="linearGradient3732"
       inkscape:collect="always">
      <stop
         id="stop3734"
         offset="0"
         style="stop-color:#00ffff;stop-opacity:1;" />
      <stop
         id="stop3736"
         offset="1"
         style="stop-color:#00ffff;stop-opacity:0;" />
    </linearGradient>
    <linearGradient
       id="linearGradient3787"
       inkscape:collect="always">
      <stop
         id="stop3789"
         offset="0"
         style="stop-color:#0000ff;stop-opacity:1;" />
      <stop
         id="stop3791"
         offset="1"
         style="stop-color:#0000ff;stop-opacity:0;" />
    </linearGradient>
    <linearGradient
       inkscape:collect="always"
       xlink:href="#linearGradient5615"
       id="linearGradient5621"
       x1="1.8762728"
       y1="1017.1795"
       x2="71.876274"
       y2="1017.1795"
       gradientUnits="userSpaceOnUse" />
    <linearGradient
       inkscape:collect="always"
       xlink:href="#linearGradient5636"
       id="linearGradient5642"
       x1="36.203125"
       y1="91.463776"
       x2="36.203125"
       y2="-32.63913"
       gradientUnits="userSpaceOnUse" />
    <inkscape:perspective
       id="perspective5738"
       inkscape:persp3d-origin="0.5 : 0.33333333 : 1"
       inkscape:vp_z="1 : 0.5 : 1"
       inkscape:vp_y="0 : 1000 : 0"
       inkscape:vp_x="0 : 0.5 : 1"
       sodipodi:type="inkscape:persp3d" />
    <linearGradient
       inkscape:collect="always"
       xlink:href="#linearGradient5636"
       id="linearGradient5750"
       gradientUnits="userSpaceOnUse"
       x1="36.203125"
       y1="91.463776"
       x2="36.203125"
       y2="-32.63913" />
    <linearGradient
       inkscape:collect="always"
       xlink:href="#linearGradient5615"
       id="linearGradient5752"
       gradientUnits="userSpaceOnUse"
       x1="1.8762728"
       y1="1017.1795"
       x2="71.876274"
       y2="1017.1795" />
    <filter
       inkscape:collect="always"
       id="filter5757"
       x="-0.11941138"
       width="1.2388228"
       y="-0.12059445"
       height="1.2411889">
      <feGaussianBlur
         inkscape:collect="always"
         stdDeviation="3.412132"
         id="feGaussianBlur5759" />
    </filter>
    <filter
       inkscape:collect="always"
       id="filter5800">
      <feGaussianBlur
         inkscape:collect="always"
         stdDeviation="0.6824264"
         id="feGaussianBlur5802" />
    </filter>
  </defs>
  <sodipodi:namedview
     id="base"
     pagecolor="#ffffff"
     bordercolor="#666666"
     borderopacity="1.0"
     inkscape:pageopacity="0.0"
     inkscape:pageshadow="2"
     inkscape:zoom="2.4946727"
     inkscape:cx="-61.037181"
     inkscape:cy="59.773243"
     inkscape:document-units="px"
     inkscape:current-layer="layer4"
     showgrid="false"
     inkscape:window-width="1280"
     inkscape:window-height="752"
     inkscape:window-x="0"
     inkscape:window-y="0"
     inkscape:window-maximized="0" />
  <metadata
     id="metadata4718">
    <rdf:RDF>
      <cc:Work
         rdf:about="">
        <dc:format>image/svg+xml</dc:format>
        <dc:type
           rdf:resource="http://purl.org/dc/dcmitype/StillImage" />
        <dc:title></dc:title>
      </cc:Work>
    </rdf:RDF>
  </metadata>
  <g
     inkscape:label="Layer 1"
     inkscape:groupmode="layer"
     id="layer1"
     transform="translate(0,-980.36218)">
    <g
       id="g5590"
       style="fill:url(#linearGradient5621);fill-opacity:1">
      <path
         id="path4374"
         d="m 64.447995,997.12288 -6.813271,-0.83017 -4.379959,4.89389 -3.583603,5.0251 -5.662977,0.3497 -2.831489,-1.748 -2.123616,4.3696 1.415743,3.0152 3.672087,0.9176 18.581646,3.4082 2.300584,6.9478 3.495119,0.5243 1.150293,2.6218 c 0.885444,-3.011 1.504228,-6.1454 1.504228,-9.4383 0,-7.535 -2.519941,-14.4242 -6.724785,-20.05672 z"
         style="fill:#ffffff;fill-opacity:0.39215686;fill-rule:nonzero;stroke:#000000;stroke-width:0;stroke-miterlimit:4;stroke-opacity:1;stroke-dasharray:none" />
      <path
         style="fill:url(#linearGradient5642);fill-opacity:1;fill-rule:nonzero;stroke:#000000;stroke-width:0;stroke-miterlimit:4;stroke-opacity:1;stroke-dasharray:none"
         d="m 36.96875,2.875 c -18.985781,0 -34.375,15.1859 -34.375,33.9375 0,18.7515 15.389219,33.96875 34.375,33.96875 15.651603,0 28.687221,-10.39695 32.84375,-24.53125 l -1.125,-2.625 -3.5,-0.5 L 62.875,36.15625 44.3125,32.75 40.625,31.84375 39.21875,28.8125 l 2.125,-4.375 2.8125,1.75 5.6875,-0.34375 3.5625,-5.03125 4.375,-4.875 6.8125,0.8125 C 58.334248,8.36537 48.325556,2.875 36.96875,2.875 z m -18.15625,12.25 14.15625,6.46875 2.3125,5.0625 L 25.375,31.1875 22,38.4375 15.5,36.25 14.8125,32.53125 16.625,19.5 11.21875,17.65625 18.8125,15.125 z m 25.65625,21.5625 16.1875,7.28125 0.125,5.9375 L 56.0625,55.5 48.84375,66.375 41.6875,62.5625 42,54.0625 l 2.9375,-4.34375 -5.125,-3.90625 -0.46875,-6.65625 5.125,-2.46875 z m -29.4375,4.78125 10.0625,0.4375 1.4375,6.90625 -0.75,13.46875 L 21.75,63.875 11,48.96875 c 4.19783,-7.0669 4.03125,-7.5 4.03125,-7.5 z"
         transform="translate(0,980.36218)"
         id="path4280" />
    </g>
    <g
       inkscape:groupmode="layer"
       id="layer2"
       inkscape:label="glow">
      <g
         style="fill:none;stroke:#ffffff;stroke-width:2;stroke-miterlimit:4;stroke-opacity:1;stroke-dasharray:none;filter:url(#filter5757)"
         id="g5744"
         transform="translate(-0.83198769,-0.37057487)">
        <path
           style="fill:none;stroke:#ffffff;stroke-width:2;stroke-miterlimit:4;stroke-opacity:1;stroke-dasharray:none"
           d="m 64.447995,997.12288 -6.813271,-0.83017 -4.379959,4.89389 -3.583603,5.0251 -5.662977,0.3497 -2.831489,-1.748 -2.123616,4.3696 1.415743,3.0152 3.672087,0.9176 18.581646,3.4082 2.300584,6.9478 3.495119,0.5243 1.150293,2.6218 c 0.885444,-3.011 1.504228,-6.1454 1.504228,-9.4383 0,-7.535 -2.519941,-14.4242 -6.724785,-20.05672 z"
           id="path5746" />
        <path
           id="path5748"
           transform="translate(0,980.36218)"
           d="m 36.96875,2.875 c -18.985781,0 -34.375,15.1859 -34.375,33.9375 0,18.7515 15.389219,33.96875 34.375,33.96875 15.651603,0 28.687221,-10.39695 32.84375,-24.53125 l -1.125,-2.625 -3.5,-0.5 L 62.875,36.15625 44.3125,32.75 40.625,31.84375 39.21875,28.8125 l 2.125,-4.375 2.8125,1.75 5.6875,-0.34375 3.5625,-5.03125 4.375,-4.875 6.8125,0.8125 C 58.334248,8.36537 48.325556,2.875 36.96875,2.875 z m -18.15625,12.25 14.15625,6.46875 2.3125,5.0625 L 25.375,31.1875 22,38.4375 15.5,36.25 14.8125,32.53125 16.625,19.5 11.21875,17.65625 18.8125,15.125 z m 25.65625,21.5625 16.1875,7.28125 0.125,5.9375 L 56.0625,55.5 48.84375,66.375 41.6875,62.5625 42,54.0625 l 2.9375,-4.34375 -5.125,-3.90625 -0.46875,-6.65625 5.125,-2.46875 z m -29.4375,4.78125 10.0625,0.4375 1.4375,6.90625 -0.75,13.46875 L 21.75,63.875 11,48.96875 c 4.19783,-7.0669 4.03125,-7.5 4.03125,-7.5 z"
           style="fill:none;stroke:#ffffff;stroke-width:2;stroke-miterlimit:4;stroke-opacity:1;stroke-dasharray:none" />
      </g>
    </g>
    <g
       style="fill:url(#linearGradient5621);fill-opacity:1"
       id="g5804">
      <path
         style="fill:#ffffff;fill-opacity:0.39215686;fill-rule:nonzero;stroke:#000000;stroke-width:0;stroke-miterlimit:4;stroke-opacity:1;stroke-dasharray:none"
         d="m 64.447995,997.12288 -6.813271,-0.83017 -4.379959,4.89389 -3.583603,5.0251 -5.662977,0.3497 -2.831489,-1.748 -2.123616,4.3696 1.415743,3.0152 3.672087,0.9176 18.581646,3.4082 2.300584,6.9478 3.495119,0.5243 1.150293,2.6218 c 0.885444,-3.011 1.504228,-6.1454 1.504228,-9.4383 0,-7.535 -2.519941,-14.4242 -6.724785,-20.05672 z"
         id="path5806" />
      <path
         id="path5808"
         transform="translate(0,980.36218)"
         d="m 36.96875,2.875 c -18.985781,0 -34.375,15.1859 -34.375,33.9375 0,18.7515 15.389219,33.96875 34.375,33.96875 15.651603,0 28.687221,-10.39695 32.84375,-24.53125 l -1.125,-2.625 -3.5,-0.5 L 62.875,36.15625 44.3125,32.75 40.625,31.84375 39.21875,28.8125 l 2.125,-4.375 2.8125,1.75 5.6875,-0.34375 3.5625,-5.03125 4.375,-4.875 6.8125,0.8125 C 58.334248,8.36537 48.325556,2.875 36.96875,2.875 z m -18.15625,12.25 14.15625,6.46875 2.3125,5.0625 L 25.375,31.1875 22,38.4375 15.5,36.25 14.8125,32.53125 16.625,19.5 11.21875,17.65625 18.8125,15.125 z m 25.65625,21.5625 16.1875,7.28125 0.125,5.9375 L 56.0625,55.5 48.84375,66.375 41.6875,62.5625 42,54.0625 l 2.9375,-4.34375 -5.125,-3.90625 -0.46875,-6.65625 5.125,-2.46875 z m -29.4375,4.78125 10.0625,0.4375 1.4375,6.90625 -0.75,13.46875 L 21.75,63.875 11,48.96875 c 4.19783,-7.0669 4.03125,-7.5 4.03125,-7.5 z"
         style="fill:url(#linearGradient5642);fill-opacity:1;fill-rule:nonzero;stroke:#000000;stroke-width:0;stroke-miterlimit:4;stroke-opacity:1;stroke-dasharray:none" />
    </g>
  </g>
  <g
     inkscape:groupmode="layer"
     id="layer4"
     inkscape:label="sunken">
    <g
       transform="translate(0,-980.36218)"
       style="fill:none;fill-opacity:1;stroke-width:1;stroke-miterlimit:4;stroke-dasharray:none;filter:url(#filter5800)"
       id="g5771">
      <path
         style="fill:none;fill-opacity:0.39215686000000000;fill-rule:nonzero;stroke:#000000;stroke-width:1;stroke-miterlimit:4;stroke-opacity:1;stroke-dasharray:none"
         d="m 64.447995,997.12288 -6.813271,-0.83017 -4.379959,4.89389 -3.583603,5.0251 -5.662977,0.3497 -2.831489,-1.748 -2.123616,4.3696 1.415743,3.0152 3.672087,0.9176 18.581646,3.4082 2.300584,6.9478 3.495119,0.5243 1.150293,2.6218 c 0.885444,-3.011 1.504228,-6.1454 1.504228,-9.4383 0,-7.535 -2.519941,-14.4242 -6.724785,-20.05672 z"
         id="path5773" />
      <path
         id="path5775"
         transform="translate(0,980.36218)"
         d="m 36.96875,2.875 c -18.985781,0 -34.375,15.1859 -34.375,33.9375 0,18.7515 15.389219,33.96875 34.375,33.96875 15.651603,0 28.687221,-10.39695 32.84375,-24.53125 l -1.125,-2.625 -3.5,-0.5 L 62.875,36.15625 44.3125,32.75 40.625,31.84375 39.21875,28.8125 l 2.125,-4.375 2.8125,1.75 5.6875,-0.34375 3.5625,-5.03125 4.375,-4.875 6.8125,0.8125 C 58.334248,8.36537 48.325556,2.875 36.96875,2.875 z m -18.15625,12.25 14.15625,6.46875 2.3125,5.0625 L 25.375,31.1875 22,38.4375 15.5,36.25 14.8125,32.53125 16.625,19.5 11.21875,17.65625 18.8125,15.125 z m 25.65625,21.5625 16.1875,7.28125 0.125,5.9375 L 56.0625,55.5 48.84375,66.375 41.6875,62.5625 42,54.0625 l 2.9375,-4.34375 -5.125,-3.90625 -0.46875,-6.65625 5.125,-2.46875 z m -29.4375,4.78125 10.0625,0.4375 1.4375,6.90625 -0.75,13.46875 L 21.75,63.875 11,48.96875 c 4.19783,-7.0669 4.03125,-7.5 4.03125,-7.5 z"
         style="fill:none;fill-opacity:1;fill-rule:nonzero;stroke:#000000;stroke-width:1;stroke-miterlimit:4;stroke-opacity:1;stroke-dasharray:none" />
    </g>
  </g>
</svg>
