<?xml version="1.0" encoding="UTF-8" standalone="no"?>
<!-- Created with Inkscape (http://www.inkscape.org/) -->

<svg
   xmlns:dc="http://purl.org/dc/elements/1.1/"
   xmlns:cc="http://creativecommons.org/ns#"
   xmlns:rdf="http://www.w3.org/1999/02/22-rdf-syntax-ns#"
   xmlns:svg="http://www.w3.org/2000/svg"
   xmlns="http://www.w3.org/2000/svg"
   xmlns:xlink="http://www.w3.org/1999/xlink"
   xmlns:sodipodi="http://sodipodi.sourceforge.net/DTD/sodipodi-0.dtd"
   xmlns:inkscape="http://www.inkscape.org/namespaces/inkscape"
   width="72"
   height="72"
   id="svg2"
   version="1.1"
   inkscape:version="0.47 r22583"
   sodipodi:docname="trash.svg"
   inkscape:export-filename="/Users/fede/devel/workspace/geotagger/res/drawable-ldpi-v4/trash.png"
   inkscape:export-xdpi="45"
   inkscape:export-ydpi="45">
  <defs
     id="defs4">
    <linearGradient
       id="linearGradient3656">
      <stop
         style="stop-color:#787878;stop-opacity:1;"
         offset="0"
         id="stop3658" />
      <stop
         style="stop-color:#a3a3a3;stop-opacity:0;"
         offset="1"
         id="stop3660" />
    </linearGradient>
    <inkscape:perspective
       sodipodi:type="inkscape:persp3d"
       inkscape:vp_x="0 : 526.18109 : 1"
       inkscape:vp_y="0 : 1000 : 0"
       inkscape:vp_z="744.09448 : 526.18109 : 1"
       inkscape:persp3d-origin="372.04724 : 350.78739 : 1"
       id="perspective10" />
    <linearGradient
       inkscape:collect="always"
       xlink:href="#linearGradient3656"
       id="linearGradient3662"
       x1="36.5"
       y1="5.2309027"
       x2="36.5"
       y2="88.745636"
       gradientUnits="userSpaceOnUse" />
    <filter
       inkscape:collect="always"
       id="filter4416"
       x="-0.12219007"
       width="1.2443801"
       y="-0.10911654"
       height="1.2182331">
      <feGaussianBlur
         inkscape:collect="always"
         stdDeviation="2.3769787"
         id="feGaussianBlur4418" />
    </filter>
    <filter
       inkscape:collect="always"
       id="filter4444">
      <feGaussianBlur
         inkscape:collect="always"
         stdDeviation="0.75631141"
         id="feGaussianBlur4446" />
    </filter>
  </defs>
  <sodipodi:namedview
     id="base"
     pagecolor="#ffffff"
     bordercolor="#666666"
     borderopacity="1.0"
     inkscape:pageopacity="0.0"
     inkscape:pageshadow="2"
     inkscape:zoom="6.0827586"
     inkscape:cx="28.982542"
     inkscape:cy="38.178419"
     inkscape:document-units="px"
     inkscape:current-layer="layer3"
     showgrid="false"
     inkscape:window-width="1280"
     inkscape:window-height="752"
     inkscape:window-x="0"
     inkscape:window-y="0"
     inkscape:window-maximized="0" />
  <metadata
     id="metadata7">
    <rdf:RDF>
      <cc:Work
         rdf:about="">
        <dc:format>image/svg+xml</dc:format>
        <dc:type
           rdf:resource="http://purl.org/dc/dcmitype/StillImage" />
        <dc:title></dc:title>
      </cc:Work>
    </rdf:RDF>
  </metadata>
  <g
     inkscape:groupmode="layer"
     id="layer2"
     inkscape:label="glow"
     sodipodi:insensitive="true">
    <path
       id="path3665"
       d="m 13.15625,11.3125 0,12.96875 8.90625,39.3125 28.9375,0 8.84375,-38.96875 0,-13.3125 -46.6875,0 z m 6.5625,4.625 34.03125,0 0,2.625 -34.03125,0 0,-2.625 z m 13.875,11.25 -0.125,34.34375 -2.125,0.03125 0.125,-34.3125 2.125,-0.0625 z m 8.5625,0 L 42,61.53125 39.875,61.5625 40.03125,27.25 l 2.125,-0.0625 z m 9.0625,0.0625 2.125,0.1875 -4.4375,34.0625 -2.125,-0.15625 4.4375,-34.09375 z m -29.125,0.15625 4.4375,34.0625 -2.125,0.1875 L 20,27.59375 l 2.09375,-0.1875 z"
       style="fill:#ffffff;fill-opacity:1;fill-rule:nonzero;stroke:none;filter:url(#filter4416)" />
  </g>
  <g
     inkscape:label="Layer 1"
     inkscape:groupmode="layer"
     id="layer1"
     transform="translate(0,-980.36218)"
     sodipodi:insensitive="true">
    <path
       style="fill:url(#linearGradient3662);fill-opacity:1;fill-rule:nonzero;stroke:#a3a3a3;stroke-width:0;stroke-miterlimit:4;stroke-opacity:1;stroke-dasharray:none"
       d="m 13.15625,11.3125 0,12.96875 8.90625,39.3125 28.9375,0 8.84375,-38.96875 0,-13.3125 -46.6875,0 z m 6.5625,4.625 34.03125,0 0,2.625 -34.03125,0 0,-2.625 z m 13.875,11.25 -0.125,34.34375 -2.125,0.03125 0.125,-34.3125 2.125,-0.0625 z m 8.5625,0 L 42,61.53125 39.875,61.5625 40.03125,27.25 l 2.125,-0.0625 z m 9.0625,0.0625 2.125,0.1875 -4.4375,34.0625 -2.125,-0.15625 4.4375,-34.09375 z m -29.125,0.15625 4.4375,34.0625 -2.125,0.1875 L 20,27.59375 l 2.09375,-0.1875 z"
       transform="translate(0,980.36218)"
       id="rect2816" />
  </g>
  <g
     inkscape:groupmode="layer"
     id="layer3"
     inkscape:label="sunken">
    <path
       id="path4420"
       d="m 13.15625,11.3125 0,12.96875 8.90625,39.3125 28.9375,0 8.84375,-38.96875 0,-13.3125 -46.6875,0 z m 6.5625,4.625 34.03125,0 0,2.625 -34.03125,0 0,-2.625 z m 13.875,11.25 -0.125,34.34375 -2.125,0.03125 0.125,-34.3125 2.125,-0.0625 z m 8.5625,0 L 42,61.53125 39.875,61.5625 40.03125,27.25 l 2.125,-0.0625 z m 9.0625,0.0625 2.125,0.1875 -4.4375,34.0625 -2.125,-0.15625 4.4375,-34.09375 z m -29.125,0.15625 4.4375,34.0625 -2.125,0.1875 L 20,27.59375 l 2.09375,-0.1875 z"
       style="fill:none;fill-opacity:1;fill-rule:nonzero;stroke:#000300;stroke-width:1;stroke-miterlimit:4;stroke-opacity:1;stroke-dasharray:none;filter:url(#filter4444)" />
  </g>
</svg>
